#!OML:ASF H:\Terrain\Patient Classification 1\Terrain2\Thursday\justin.ASF
:FULLY-SPECIFIED
:DEGREES
2021
root 27.7816 17.538 -10.853 1.88226 117.065 -354.058
lowerback 5.61889 -2.13242 -0.321137
upperback 3.25472 -2.70155 3.05371
thorax 0.367866 -1.32435 3.46188
lowerneck -12.9072 -0.21429 -6.79546
upperneck 41.2644 5.34701 -0.891828
head 17.2074 1.92181 2.04786
rclavicle 4.63665e-014 -1.59028e-014
rhumerus -35.0235 -13.0697 -73.5429
rradius 35.373
rwrist -15.3426
rhand -21.0472 12.0363
rfingers 7.12502
rthumb 5.32877 -17.8767
lclavicle 4.63665e-014 -1.59028e-014
lhumerus -31.6569 4.57432 86.2869
lradius 37.1236
lwrist 3.32577
lhand -16.0306 21.069
lfingers 7.12502
lthumb 10.1706 50.8032
rfemur -13.8498 -16.4341 21.9787
rtibia 52.2122
rfoot -14.8736 -10.7121
rtoes 2.59767
lfemur -6.9034 4.81647 -20.1049
ltibia 28.5171
lfoot -13.7235 -4.87275
ltoes 1.93535
2022
root 27.7963 17.5433 -10.8603 1.28003 117.71 -354.762
lowerback 5.57669 -2.17445 -0.477031
upperback 3.25596 -2.76796 2.98074
thorax 0.400705 -1.36047 3.47529
lowerneck -12.6939 -0.252862 -6.47286
upperneck 40.9575 5.38814 -1.5057
head 17.0225 1.9212 1.70887
rclavicle 2.11209e-014 2.38542e-015
rhumerus -35.1001 -12.2643 -73.7
rradius 34.8832
rwrist -15.7735
rhand -21.2347 11.9083
rfingers 7.12502
rthumb 5.14776 -18.0092
lclavicle 2.11209e-014 2.38542e-015
lhumerus -31.5202 4.73278 86.2778
lradius 37.5257
lwrist 3.66431
lhand -16.1308 21.5375
lfingers 7.12502
lthumb 10.074 51.2763
rfemur -14.4638 -16.3307 21.5268
rtibia 53.2705
rfoot -13.517 -10.5876
rtoes 1.01177
lfemur -6.7633 4.32806 -20.4094
ltibia 28.1682
lfoot -13.7605 -5.92451
ltoes 13.8414
2023
root 27.8134 17.5506 -10.8532 0.485815 118.381 -355.733
lowerback 5.52802 -2.17863 -1.0564
upperback 3.23774 -2.80386 2.99584
thorax 0.441689 -1.38898 3.81697
lowerneck -12.607 -0.127813 -6.52365
upperneck 40.8326 5.6612 -1.65191
head 16.9323 2.01954 1.69623
rclavicle 3.34952e-014 -1.03368e-014
rhumerus -35.2431 -12.8879 -73.5371
rradius 34.1062
rwrist -14.8119
rhand -20.9989 12.35
rfingers 7.12502
rthumb 5.37541 -17.5618
lclavicle 3.34952e-014 -1.03368e-014
lhumerus -31.4206 5.12962 86.339
lradius 37.9296
lwrist 3.80201
lhand -16.2752 21.7548
lfingers 7.12502
lthumb 9.93463 51.5003
rfemur -15.1812 -15.9729 21.0345
rtibia 54.4228
rfoot -12.4747 -10.5424
rtoes 0.619218
lfemur -6.67082 4.05774 -20.7751
ltibia 27.73
lfoot -13.2876 -6.29017
ltoes 4.63793
2024
root 27.833 17.5524 -10.8494 -0.695371 119.168 -356.954
lowerback 5.61786 -2.15502 -1.7327
upperback 3.31145 -2.80507 2.93769
thorax 0.49993 -1.40111 4.14017
lowerneck -12.728 -0.0641455 -6.63602
upperneck 40.8052 5.8113 -1.62071
head 16.9404 2.07221 1.7598
rclavicle -1.05356e-014 -1.59028e-015
rhumerus -35.4038 -12.6492 -73.497
rradius 33.6557
rwrist -14.8118
rhand -20.4707 12.4597
rfingers 7.12502
rthumb 5.88536 -17.4385
lclavicle -1.05356e-014 -1.59028e-015
lhumerus -31.1302 5.34992 86.3446
lradius 38.1519
lwrist 3.86686
lhand -16.16 21.4173
lfingers 7.12502
lthumb 10.0458 51.1575
rfemur -15.6674 -15.4925 20.2999
rtibia 55.5745
rfoot -11.5919 -10.5143
rtoes 0.65913
lfemur -6.3696 4.10018 -21.2883
ltibia 27.2766
lfoot -13.0974 -7.07029
ltoes 0.0555254
2025
root 27.851 17.553 -10.8518 -1.572 119.981 -357.765
lowerback 5.78636 -2.13394 -2.08146
upperback 3.40558 -2.79197 2.86295
thorax 0.51677 -1.39932 4.26392
lowerneck -13.0521 -0.112922 -6.93029
upperneck 41.0657 5.81259 -1.32716
head 17.1469 2.06036 1.96226
rclavicle -7.25564e-014 -1.11319e-014
rhumerus -35.5807 -11.7221 -73.7489
rradius 33.47
rwrist -15.4987
rhand -20.3207 11.8553
rfingers 7.12502
rthumb 6.03025 -18.0389
lclavicle -7.25564e-014 -1.11319e-014
lhumerus -30.7568 5.27828 86.3372
lradius 38.2685
lwrist 3.92521
lhand -16.1171 21.0039
lfingers 7.12502
lthumb 10.0872 50.7421
rfemur -16.0282 -15.0858 19.6736
rtibia 56.6282
rfoot -10.6768 -10.3545
rtoes 0.293424
lfemur -6.0177 4.26213 -21.6466
ltibia 26.9149
lfoot -13.0383 -7.95394
ltoes -1.51416
2026
root 27.8675 17.5572 -10.8438 -1.43793 120.696 -357.612
lowerback 5.89256 -2.11408 -2.12721
upperback 3.40546 -2.76246 3.00345
thorax 0.465095 -1.38355 4.43928
lowerneck -13.2511 -0.160298 -7.32224
upperneck 41.2063 5.90834 -1.23412
head 17.2653 2.05197 2.10291
rclavicle -6.03311e-014 3.33958e-014
rhumerus -35.4961 -11.6493 -73.6482
rradius 32.5686
rwrist -15.251
rhand -19.8992 11.5534
rfingers 7.12502
rthumb 6.4371 -18.3288
lclavicle -6.03311e-014 3.33958e-014
lhumerus -30.5342 5.24625 86.4372
lradius 38.4588
lwrist 4.09098
lhand -16.3413 20.8354
lfingers 7.12502
lthumb 9.87093 50.584
rfemur -16.4998 -14.4227 19.6541
rtibia 57.4982
rfoot -10.2643 -9.96472
rtoes 2.31777
lfemur -5.999 4.33379 -21.4291
ltibia 26.72
lfoot -12.9007 -8.94223
ltoes -0.298299
2027
root 27.8869 17.5637 -10.8365 -0.761376 121.546 -356.898
lowerback 5.86386 -2.14299 -1.86077
upperback 3.43542 -2.77752 3.22437
thorax 0.511601 -1.38631 4.51759
lowerneck -13.3527 -0.130892 -7.4574
upperneck 41.0603 6.09014 -1.43394
head 17.2159 2.08501 2.06807
rclavicle -2.40529e-014 -1.66979e-014
rhumerus -35.3474 -11.9615 -73.4503
rradius 31.5321
rwrist -14.5662
rhand -19.1605 12.0308
rfingers 7.12502
rthumb 7.15025 -17.8284
lclavicle -2.40529e-014 -1.66979e-014
lhumerus -30.3668 5.49675 86.5595
lradius 38.7341
lwrist 4.12194
lhand -16.4884 20.922
lfingers 7.12502
lthumb 9.72893 50.6773
rfemur -16.9583 -13.911 19.9441
rtibia 58.1456
rfoot -10.5327 -9.59716
rtoes 3.83262
lfemur -6.10396 3.87791 -20.8755
ltibia 26.7247
lfoot -12.5249 -9.93409
ltoes 4.81023
2028
root 27.9088 17.5633 -10.8367 -0.748985 122.53 -356.8
lowerback 5.82884 -2.05662 -1.54569
upperback 3.54576 -2.64421 3.09943
thorax 0.610498 -1.31375 4.19936
lowerneck -13.4507 -0.16387 -7.19473
upperneck 41.0012 5.9338 -1.34985
head 17.2096 2.07781 2.03509
rclavicle 8.59744e-014 -5.32743e-014
rhumerus -35.591 -12.5818 -73.5182
rradius 30.9528
rwrist -14.0914
rhand -18.9941 13.0749
rfingers 7.12502
rthumb 7.31088 -16.7788
lclavicle 8.59744e-014 -5.32743e-014
lhumerus -30.1317 5.22591 86.4953
lradius 39.0307
lwrist 4.06301
lhand -16.4636 20.9654
lfingers 7.12502
lthumb 9.75293 50.7196
rfemur -17.171 -13.6475 19.7974
rtibia 58.6467
rfoot -11.0303 -9.48444
rtoes 4.12449
lfemur -6.03113 3.30786 -20.7398
ltibia 26.8567
lfoot -12.3138 -10.6146
ltoes 10.3006
2029
root 27.9343 17.5565 -10.8345 -1.11987 123.49 -357.096
lowerback 5.82605 -1.9459 -1.455
upperback 3.60872 -2.49312 2.9261
thorax 0.651455 -1.23556 3.95961
lowerneck -13.2836 -0.163098 -6.92406
upperneck 40.885 5.81395 -1.28156
head 17.1028 2.09856 1.99221
rclavicle -2.8625e-014 9.54166e-015
rhumerus -35.9351 -13.7197 -73.3357
rradius 30.2833
rwrist -13.2383
rhand -19.1302 13.5538
rfingers 7.12502
rthumb 7.17944 -16.3044
lclavicle -2.8625e-014 9.54166e-015
lhumerus -29.9819 4.76172 86.3721
lradius 39.3648
lwrist 4.18241
lhand -16.2739 20.8641
lfingers 7.12502
lthumb 9.9359 50.6096
rfemur -17.1323 -13.0807 19.4627
rtibia 59.0386
rfoot -11.2055 -9.54842
rtoes 5.375
lfemur -5.97199 3.08974 -20.8674
ltibia 26.9855
lfoot -12.261 -11.2573
ltoes 14.6234
2030
root 27.9601 17.5468 -10.832 -1.49869 124.435 -357.492
lowerback 5.8209 -1.99635 -1.73676
upperback 3.57876 -2.57291 2.98986
thorax 0.646717 -1.28061 4.18906
lowerneck -13.1229 -0.0357309 -6.88078
upperneck 40.8317 6.13263 -1.52535
head 17.0407 2.22431 1.92948
rclavicle -5.51627e-015 1.27222e-014
rhumerus -36.0377 -14.4019 -72.9487
rradius 29.3718
rwrist -12.2585
rhand -19.6313 12.6299
rfingers 7.12502
rthumb 6.69575 -17.2442
lclavicle -5.51627e-015 1.27222e-014
lhumerus -29.9836 4.89767 86.3705
lradius 39.6494
lwrist 4.43248
lhand -16.0177 20.8589
lfingers 7.12502
lthumb 10.1831 50.5925
rfemur -17.0817 -12.4089 19.1248
rtibia 59.3675
rfoot -11.3204 -9.6479
rtoes 5.9027
lfemur -5.90629 2.91495 -21.0753
ltibia 26.9055
lfoot -12.2915 -11.8416
ltoes 15.01
2031
root 27.9812 17.5397 -10.8304 -1.98665 125.433 -358.03
lowerback 5.9697 -2.11074 -2.22441
upperback 3.50614 -2.74862 3.08965
thorax 0.535096 -1.37526 4.58455
lowerneck -13.1737 0.0736279 -6.75894
upperneck 40.9514 6.49136 -1.85873
head 17.1401 2.35574 1.83168
rclavicle 1.12313e-014 5.56597e-015
rhumerus -36.0854 -14.4843 -72.6911
rradius 28.5031
rwrist -11.508
rhand -20.2394 11.7214
rfingers 7.12502
rthumb 6.10865 -18.1706
lclavicle 1.12313e-014 5.56597e-015
lhumerus -30.1272 5.21662 86.4028
lradius 39.9721
lwrist 4.71172
lhand -16.4601 20.8835
lfingers 7.12502
lthumb 9.75628 50.6375
rfemur -16.9805 -11.7707 18.6172
rtibia 59.6195
rfoot -12.0421 -9.46833
rtoes 5.43986
lfemur -5.72931 2.56085 -21.3942
ltibia 26.6279
lfoot -12.2207 -12.4032
ltoes 13.8479
2032
root 28.0066 17.5507 -10.8249 -2.58283 126.49 -358.686
lowerback 6.19721 -2.13541 -2.78185
upperback 3.44224 -2.81278 3.11106
thorax 0.380151 -1.41305 4.93719
lowerneck -13.321 0.0886043 -6.65649
upperneck 41.1433 6.61657 -1.93604
head 17.2934 2.41725 1.81598
rclavicle -2.79292e-014 -1.27222e-014
rhumerus -36.3014 -14.4829 -72.5082
rradius 27.7496
rwrist -10.8999
rhand -20.5357 11.4833
rfingers 7.12502
rthumb 5.82264 -18.4167
lclavicle -2.79292e-014 -1.27222e-014
lhumerus -30.29 5.32009 86.4513
lradius 40.4132
lwrist 4.88345
lhand -16.722 21.1804
lfingers 7.12502
lthumb 9.5036 50.9461
rfemur -16.9864 -10.9371 18.0027
rtibia 59.6948
rfoot -12.6902 -9.31907
rtoes 3.80114
lfemur -5.49938 2.19888 -21.7663
ltibia 26.2677
lfoot -11.9291 -13.0716
ltoes 14.1447
2033
root 28.0365 17.5627 -10.8078 -2.96505 127.511 -359.148
lowerback 6.3142 -2.09108 -3.18136
upperback 3.42353 -2.77733 3.09239
thorax 0.312519 -1.39957 5.14827
lowerneck -13.5006 0.0720304 -6.72175
upperneck 41.3232 6.67003 -1.83489
head 17.4343 2.44617 1.89797
rclavicle 1.33186e-014 -2.38542e-015
rhumerus -36.546 -14.3699 -72.5581
rradius 27.1001
rwrist -10.69
rhand -20.8049 11.4234
rfingers 7.12502
rthumb 5.56273 -18.4836
lclavicle 1.33186e-014 -2.38542e-015
lhumerus -30.299 5.24786 86.4883
lradius 40.7697
lwrist 4.99014
lhand -16.1424 21.8072
lfingers 7.12502
lthumb 10.0628 51.5467
rfemur -16.9903 -9.86269 17.5681
rtibia 59.6212
rfoot -13.3957 -9.02457
rtoes 4.70006
lfemur -5.34655 2.04431 -21.9435
ltibia 25.9255
lfoot -11.6915 -13.8139
ltoes 13.9854
2034
root 28.0694 17.5716 -10.7949 -2.9117 128.446 -359
lowerback 6.35277 -2.01629 -3.00475
upperback 3.44078 -2.66562 3.06838
thorax 0.285967 -1.33884 5.01851
lowerneck -13.567 0.0112912 -6.95693
upperneck 41.4877 6.6458 -1.59632
head 17.5259 2.44171 2.05563
rclavicle 6.33129e-014 -1.66979e-014
rhumerus -36.822 -15.0607 -72.4105
rradius 26.3927
rwrist -10.1736
rhand -20.7502 11.5751
rfingers 7.12502
rthumb 5.61554 -18.3305
lclavicle 6.33129e-014 -1.66979e-014
lhumerus -30.2777 4.80762 86.4878
lradius 40.9563
lwrist 5.43876
lhand -16.3269 21.8475
lfingers 7.12502
lthumb 9.8848 51.5954
rfemur -16.7964 -8.87307 17.5235
rtibia 59.3288
rfoot -14.1151 -8.46675
rtoes 5.88612
lfemur -5.13664 1.89608 -21.7159
ltibia 25.6037
lfoot -11.4819 -14.5472
ltoes 14.2667
2035
root 28.1037 17.5796 -10.7966 -3.14957 129.41 -359.238
lowerback 6.28385 -1.75856 -2.78246
upperback 3.42328 -2.31855 2.7254
thorax 0.241863 -1.15972 4.51383
lowerneck -13.4537 -0.210884 -6.86284
upperneck 41.6896 6.12603 -1.07196
head 17.5921 2.33419 2.19555
rclavicle 7.15625e-014 -1.74931e-014
rhumerus -37.4928 -17.3441 -71.834
rradius 25.6119
rwrist -8.85614
rhand -20.6861 11.7442
rfingers 7.12502
rthumb 5.67742 -18.1597
lclavicle 7.15625e-014 -1.74931e-014
lhumerus -30.2996 3.47853 86.3438
lradius 41.1003
lwrist 6.02141
lhand -16.9573 21.6069
lfingers 7.12502
lthumb 9.27659 51.3828
rfemur -16.5251 -8.07716 17.1459
rtibia 58.8703
rfoot -14.8427 -7.79644
rtoes 4.90783
lfemur -4.95818 1.47179 -21.8602
ltibia 25.4034
lfoot -11.4475 -14.986
ltoes 14.7415
